<svg version="1.2" xmlns="http://www.w3.org/2000/svg" viewBox="0 0 1080 920" width="301" height="256"><style>.a{fill:#f7a41d}</style><rect width="1080" height="920" style="display:none;fill:#ff0016"/><path fill-rule="evenodd" class="a" d="m608.1 658.5c8.4-2.3 16.8-4.3 24.9-6.9 37.9-12.3 72.1-31.1 102.7-56 19.2-15.3 35.7-33 50.2-52.1 22.3-29.2 38.4-61.3 48.3-96.2 3.9-13.8 6.2-27.6 7.7-41.8 3.4-31.4 0.8-62.1-7.7-92.4-9.6-34.1-24.9-64.8-46.4-92.4-19.1-24.5-42.1-44.4-69.7-59-15-8-30.3-14.2-46.8-17.6-33.3-6.9-64.8-2.3-94.7 13.8-18 10-31 24.5-36.4 44.4-5.7 21.1-1.5 40.7 10.8 59.1 9.2 14.2 22.2 24.5 36.8 32.6 16.8 9.5 33.7 18.7 50.2 28.3 14.5 8.1 28 17.6 39.5 29.5 14.5 15.4 25.3 33.4 31.8 53.7 4.6 13.8 6.9 28.4 7.3 42.9 1.1 26.1-3.1 51.4-13.5 75.5-7.2 17.3-17.6 32.6-30.2 46.8-14.2 15.7-31.1 28-49.5 38.7-0.8 0.4-1.5 0.8-2.3 0.4q0.8-0.8 1.5-1.5c23.8-16.5 41.8-37.6 53.3-64.1 6.5-14.9 10.4-30.6 11.5-46.7 1.2-18.8-1.1-36.8-7.3-54.4-8.4-24.6-23-44.5-43.3-60.6-16.8-13.4-35.2-23-54.8-31.1-16.9-7.2-33.7-14.1-49.4-23.7-15-8.4-28.8-18-39.5-31.4-13.8-16.9-22.6-35.7-24.9-57.9-3.1-29.9 5.3-56.4 24.5-79.4 16.1-19.1 36.4-32.9 59-42.9 21.1-9.2 43.3-14.2 66.3-16.1q20.7-1.5 41.4 0.8c23 2.7 44.9 9.6 65.6 19.9 33.3 16.9 61.7 40.3 85.5 69.4 18.7 23 33.3 48.3 44.4 75.5 7.7 18.8 13.4 37.9 16.5 57.9 2.7 17.2 2.7 34.5 1.5 52.1q-1.9 26.1-8.4 51.7c-5 20.7-13 40.7-22.6 60.2-10.7 21.1-23.4 41.4-38.7 59.4-30.3 36.4-66 65.6-108.1 87q-43.7 22.6-91.6 31.8c-18.4 3.5-37.2 5.4-56 6.2q-24.1 1.1-48.3-1.2-49.8-4.2-95.8-24.1c-26.1-11.1-50.2-25.3-72.4-42.9q-33-26.5-58.7-60.6c-22.6-29.9-40.2-62.5-51.3-98.5-0.8-1.9-1.6-4.2-1.6-6.1q2.3 6.1 5 12.6c11.5 29.9 27.2 57.1 46.4 82.8 28.3 36.8 63.6 65.2 105.4 85.9q35.6 18 75.1 25.3c19.6 3.4 39.9 5.3 59.8 4.6 24.5-0.8 48.7-4.6 72.1-11.2q36.8-10.3 69-29.9c30.2-18.7 55.5-42.1 74.3-72.4 15-23.4 23.8-48.7 28.8-75.9q4.2-23.4 3.4-47.5c-1.5-33.4-8.8-65.6-23.8-95.8-10.7-22.3-24.9-42.6-42.9-59.8-15.3-14.2-31.8-26.1-51.7-33-14.2-5-28.8-6.9-44.1-3.8-11.9 2.6-22.2 8.4-29.9 18.4-0.4 0.3-0.4 0.3-1.2 1.5 0.8-7.3 2.7-13 5.8-18.8 5.7-10.7 14.9-18 25.7-23.4 18.4-9.2 37.5-11.1 57.5-8 24.1 3.4 44.8 14.2 64 28.7 22.2 16.9 40.6 37.6 55.2 61.4 14.2 23 23.4 47.9 28.3 74.3 4.3 20.7 5.4 41.8 4.3 62.9q-2.3 48.7-23.4 93.1c-20 42.6-49.5 77.1-87.8 104.3-25.7 18.4-53.7 32.2-83.6 41.7-0.7 0.4-1.5 0.8-2.6 1.2-5 1.1-9.6 2.7-14.2 3.8q0 0.4 0.4 0.8 6.5-1.9 13.4-3.8zm-116.5-621.4c-7.3 1.6-15 3.1-22.3 5-44.1 12.3-84.3 32.6-119.9 61.4-29.6 23.3-54.1 50.9-72.9 83.5-16.1 27.2-26.4 56.4-31.8 87.4-2.7 16.5-4.2 32.6-3.8 49.1 0.4 27.2 5 54 13.8 79.7 13 38.3 32.9 72.1 62.1 100.4 28 27.2 60.5 47.5 98.5 58.3 18.8 5 37.9 7.6 57.9 7.3 31.4-1.2 60.5-9.6 86.2-28.8 14.9-11.1 27.2-24.9 33-43.3 5.7-17.6 4.2-35.6-3.1-52.5-7.3-16.9-19.6-29.1-34.5-39.5-12.6-9.2-26.4-16.1-40.2-23.8-18.4-9.5-36.1-21-51.4-36-19.2-18.8-31.1-41.4-35.7-68.2-4.2-24.9-2.3-49.8 6.2-73.6 11.9-33.3 33.3-59.4 62.1-79.3 25.7-18.1 54.4-28.8 85.4-33.4 4.6-0.8 9.6-1.1 14.6-1.5q0.4 0.4 0.4 0.7c-11.5 1.6-23 4.6-34.1 8.5-20.7 7.3-39.9 17.2-57.1 30.6-20.3 16.1-36.1 35.7-44.1 60.2-12.3 35.7-7.3 69.8 12.6 102 11.5 18.4 27.6 32.6 46 44 15.8 10 32.6 17.7 49.5 24.6 16.1 6.5 31.8 13.8 46.4 23 28.3 18 48.3 42.1 55.5 75.1 9.2 41.8 0.4 79.7-26.4 113.1-15 18.4-33.7 32.6-54.8 43.3-23 12.3-47.9 19.9-74.4 22.2q-31.4 2.7-62.8-3c-46-7.7-87.4-26.1-125-53.7q-44.8-33.4-75.5-80.5-19.5-29.9-31.8-63.6c-6.9-18-10.7-36.8-12.7-56.4-1.9-21.4-1.5-42.5 0.8-64 2.7-26.4 8.8-51.7 18.4-76.3 13-32.5 31-62.1 53.7-88.9q32.9-38.3 75.9-65.1c26-16.1 53.6-28.8 82.7-37.6 16.5-5 33-8.8 49.9-11.5 2.7-0.4 5.3-0.8 8.4-1.2-0.4 0.4-0.4 0.8-0.8 0.8-0.3 0.4-0.7 0.4-1.5 0.4-0.4 0.4-0.8 0.4-1.1 0.4q-0.4 0-1.2 0-0.8 0.4-1.1 0.7zm302.4 108.1c-2.3-1.5-4.2-3.4-6.5-4.9-28.4-26.1-60.6-45.7-96.6-59.1-18-6.9-36.4-11.9-55.2-14.5-20.3-3.1-41-4.3-61.7-2-15.4 1.6-30.3 4.6-45.3 9.2-21.8 6.9-42.1 17.7-61.3 31.1-24.9 18-45.6 39.9-62.5 65.9-14.1 21.5-24.9 44.5-31.8 69.4-8 29.9-12.2 59.8-11.1 90.5q2.3 62.6 43.7 110.3c23.8 26.9 53.7 44.9 88.2 55.2q17.2 5 34.8 4.2c13.8-0.3 27.3-3.4 38.7-11.8 3.5-2.3 6.2-5 10-7.7-1.5 3.1-2.7 6.1-4.2 8.8-8.8 15-21.8 24.9-37.6 31.1-16.8 6.5-34.1 9.2-52.1 8.4-23.4-1.2-45.6-6.9-67.5-15.7-28.3-11.9-53.6-28.8-75.1-51.4-19.5-20.7-34.1-44.4-44.4-71.3-8.1-21.1-12.3-43.3-13.8-66.3q-2-30.3 4.2-60.5c5.3-28 15.3-54.9 29.9-79.8 14.9-25.3 33.7-47.9 55.9-67.4 30.7-26.9 65.6-47.2 104.7-59.8 18.8-5.8 37.9-10.4 57.5-11.9 13-1.2 25.7-2.3 38.7-1.9q59.8 0 114.6 24.1c27.2 11.9 51.7 27.6 74.7 46.8 11.1 9.6 21.5 19.2 31.1 30.7 0 0.3 0 0.3 0 0.3z"/><path  d="m155.8 778h23.6q15.6 0 23.8 7.5 8.4 7.3 8.4 21.2v16.5q0 14.1-8.2 21.7-8.1 7.3-23.7 7l-47.5-0.9v-20.1h53.3q2.6 0 2.6-2.6v-26.8q0-2.6-2.6-2.6h-23.9q-15.7 0-23.9-7.1-8-7.3-8-21.5v-15.8q0-13.9 8.2-21.5 8.3-7.7 23.9-7.3l45.6 0.8v20.1h-51.6q-2.6 0-2.6 2.6v26.2q0 2.6 2.6 2.6zm96.1-23v96h-22.1v-96zm0-35.1v19.7h-22.1v-19.7zm59.9 33.4h7q12.4 0 18 5.2 5.7 4.8 5.7 17.2v75.3h-22.1v-77.4q0-2.4-2.3-2.4h-21.6q-2.3 0-2.3 2.4l0.3 77.4h-22.2l-0.2-96h19.8l2.3 16.2-1.4 2.6q0-9.9 4.4-15.1 4.7-5.4 14.6-5.4zm48.3 0h6.8q12.4 0 18 5.2 5.7 4.8 5.7 17.2v75.3h-22.2v-77.4q0-2.4-2.3-2.4h-21.2q-2.4 0-2.4 2.4l-0.7 2.7-0.7-2.5q0-9.9 4.6-15.1 4.5-5.4 14.4-5.4zm71.5 98v36.9h-22.3v-133.2h19.9l2.4 16.2-1 2.6q0-9.9 4.4-15.1 4.4-5.4 14.2-5.4h8.8q12.5 0 18 5.2 5.8 4.8 5.8 17.2v51.9q0 13.4-6 18.7-6 5.2-20.5 5.2zm0-77.7v62.1l-2.5-2.6 28.4 0.2q2.3 0 2.3-2.4v-57.3q0-2.4-2.3-2.4h-23.6q-2.3 0-2.3 2.4zm92.1-54.9v132.3h-22.1v-132.3zm88 114.8v18.6h-39q-15.4 0-22.3-5.8-6.9-6.2-6.9-20.1v-48.4q0-14 5.9-19.1 5.9-5.4 20.2-5.4h18.3q14.5 0 20.3 5.4 6.1 5.1 6.1 19.1v36.6h-51.2v-15.9h29.3v-24.9q0-2.4-2.3-2.4h-22.1q-2.3 0-2.3 2.4v57.5q0 2.4 2.3 2.4zm66.7 19.1h-19.5q-12.4 0-18.1-5-5.7-5.1-5.7-17.3v-103.8h23.1v103.1q0 2.3 2.3 2.3h26.4q2.3 0 2.3-2.3v-103.1h22.1v103.1q0 2.3 2.3 2.3h26.7q2.4 0 2.4-2.3l-0.3-103.1h23l0.3 103.6q0 12.3-5.8 17.5-5.5 5-17.8 5h-20q-11.8 0-17.4-5.2-5.4-5.4-5.4-17.2h2q-0.1 11.8-5.7 17.2-5.2 5.2-17.2 5.2zm134.5-97.7v96.1h-22.2v-96.1zm0-35v19.7h-22.1v-19.7zm45-1.2v132.3h-21.8v-132.3zm15.8 84.6h-23.1v-11.8h23.9q1.9 0 2.5-2.3l9.9-34.3h21.9l-8.5 28.6q-2.4 8.7-5.1 13-2.5 4.1-7.5 5.5-4.7 1.3-14 1.3zm4.6 6.8h-27.7v-11.8h27.1q9.3 0 14.1 1.5 5.1 1.3 7.7 5.7 2.8 4.1 5.5 12.5l11.1 33h-22.6l-12.8-38.6q-0.3-1.3-0.8-1.8-0.3-0.5-1.6-0.5zm72.6-55.2v96.1h-22.1v-96.1zm0-35v19.7h-22.1v-19.7z"/></svg>
